<svg width="208" height="211" viewBox="0 0 208 211" fill="none" xmlns="http://www.w3.org/2000/svg">
<g filter="url(#filter0_f_557_169)">
<rect x="47.7031" y="47.6992" width="112" height="115" rx="22.4905" fill="#FF4D00"/>
</g>
<rect x="47.7031" y="49.6992" width="111.553" height="111.553" rx="22.4905" fill="#FF4D00"/>
<path d="M137.967 105.476C137.967 109.272 134.89 112.349 131.093 112.349C125.747 112.349 123.138 109.764 121.165 108.531C118.088 106.608 114.649 102.14 105.798 104.973C105.818 105.03 105.839 105.086 105.852 105.145C109.203 104.678 117.775 104.998 127.044 117.357C130.285 121.677 130.809 126.553 128.124 129.238C125.44 131.922 121.088 131.922 118.404 129.238C114.623 125.457 114.607 121.785 114.083 119.517C113.267 115.982 113.995 110.391 105.734 106.136C105.708 106.19 105.68 106.244 105.648 106.295C108.347 108.333 114.185 114.62 112 129.915C111.236 135.262 108.159 139.08 104.362 139.08C100.566 139.08 97.4888 136.003 97.4888 132.207C97.4888 126.86 100.074 124.252 101.307 122.278C103.23 119.201 107.698 115.762 104.865 106.912C104.808 106.932 104.752 106.952 104.693 106.965C105.16 110.316 104.84 118.889 92.4814 128.158C88.161 131.398 83.2848 131.922 80.6004 129.238C77.9161 126.553 77.9161 122.201 80.6004 119.517C84.3807 115.737 88.0533 115.72 90.3213 115.197C93.8564 114.381 99.4474 115.108 103.702 106.847C103.648 106.821 103.594 106.794 103.544 106.761C101.505 109.461 95.2178 115.298 79.9227 113.113C74.5765 112.349 70.7578 109.272 70.7578 105.476C70.7578 101.679 73.8352 98.602 77.6315 98.602C82.9777 98.602 85.5864 101.187 87.5601 102.421C90.6368 104.344 94.0761 108.812 102.926 105.978C102.907 105.922 102.886 105.865 102.873 105.806C99.5221 106.273 90.9495 105.953 81.6805 93.5947C78.4402 89.2743 77.916 84.3981 80.6004 81.7137C83.2848 79.0293 87.6368 79.0293 90.3212 81.7137C94.1015 85.494 94.1182 89.1666 94.6416 91.4345C95.4573 94.9697 94.73 100.561 102.991 104.815C103.017 104.761 103.044 104.707 103.077 104.657C100.377 102.619 94.54 96.331 96.725 81.036C97.4888 75.6898 100.566 71.8711 104.362 71.8711C108.159 71.8711 111.236 74.9485 111.236 78.7448C111.236 84.091 108.651 86.6997 107.417 88.6734C105.494 91.7501 101.026 95.1894 103.86 104.04C103.916 104.02 103.973 103.999 104.032 103.986C103.565 100.635 103.885 92.0628 116.243 82.7937C120.564 79.5534 125.44 79.0293 128.124 81.7137C130.809 84.3981 130.809 88.7502 128.124 91.4345C124.344 95.2148 120.671 95.2316 118.404 95.7549C114.868 96.5707 109.277 95.8433 105.023 104.104C105.077 104.13 105.131 104.158 105.181 104.19C107.22 101.491 113.507 95.6534 128.802 97.8384C134.148 98.6021 137.967 101.679 137.967 105.476Z" fill="black"/>
<defs>
<filter id="filter0_f_557_169" x="0.00312424" y="-0.000782013" width="207.4" height="210.4" filterUnits="userSpaceOnUse" color-interpolation-filters="sRGB">
<feFlood flood-opacity="0" result="BackgroundImageFix"/>
<feBlend mode="normal" in="SourceGraphic" in2="BackgroundImageFix" result="shape"/>
<feGaussianBlur stdDeviation="23.85" result="effect1_foregroundBlur_557_169"/>
</filter>
</defs>
</svg>
