<svg width="208" height="211" viewBox="0 0 208 211" fill="none" xmlns="http://www.w3.org/2000/svg">
<g filter="url(#filter0_f_557_189)">
<rect x="47.7031" y="47.6992" width="112" height="115" rx="22.4905" fill="#E2E2E2"/>
</g>
<rect x="48.7031" y="48.6992" width="111.553" height="111.553" rx="22.4905" fill="#E2E2E2"/>
<path d="M91.3035 105.49C83.5894 105.49 77.3359 99.2363 77.3359 91.5222C77.3359 83.8082 83.5894 77.5547 91.3035 77.5547C99.0176 77.5547 105.271 83.8082 105.271 91.5222C105.271 99.2363 99.0176 105.49 91.3035 105.49ZM119.239 105.49C126.953 105.49 133.206 99.2363 133.206 91.5222C133.206 83.8082 126.953 77.5547 119.239 77.5547C111.525 77.5547 105.271 83.8082 105.271 91.5222C105.271 99.2363 111.525 105.49 119.239 105.49ZM91.3035 105.49C83.5894 105.49 77.3359 111.743 77.3359 119.457C77.3359 127.171 83.5894 133.425 91.3035 133.425C99.0176 133.425 105.271 127.171 105.271 119.457C105.271 111.743 99.0176 105.49 91.3035 105.49ZM119.239 105.49C111.525 105.49 105.271 111.743 105.271 119.457C105.271 127.171 111.525 133.425 119.239 133.425C126.953 133.425 133.206 127.171 133.206 119.457C133.206 111.743 126.953 105.49 119.239 105.49Z" fill="black"/>
<defs>
<filter id="filter0_f_557_189" x="0.00312424" y="-0.000782013" width="207.4" height="210.4" filterUnits="userSpaceOnUse" color-interpolation-filters="sRGB">
<feFlood flood-opacity="0" result="BackgroundImageFix"/>
<feBlend mode="normal" in="SourceGraphic" in2="BackgroundImageFix" result="shape"/>
<feGaussianBlur stdDeviation="23.85" result="effect1_foregroundBlur_557_189"/>
</filter>
</defs>
</svg>
