<svg width="208" height="208" viewBox="0 0 208 208" fill="none" xmlns="http://www.w3.org/2000/svg">
<path d="M91.3035 105.49C83.5894 105.49 77.3359 99.2363 77.3359 91.5222C77.3359 83.8082 83.5894 77.5547 91.3035 77.5547C99.0176 77.5547 105.271 83.8082 105.271 91.5222C105.271 99.2363 99.0176 105.49 91.3035 105.49Z" fill="#E2E2E2"/>
<path d="M119.239 105.49C126.953 105.49 133.206 99.2363 133.206 91.5222C133.206 83.8082 126.953 77.5547 119.239 77.5547C111.525 77.5547 105.271 83.8082 105.271 91.5222C105.271 99.2363 111.525 105.49 119.239 105.49Z" fill="#E2E2E2"/>
<path d="M91.3035 105.49C83.5894 105.49 77.3359 111.743 77.3359 119.457C77.3359 127.171 83.5894 133.425 91.3035 133.425C99.0176 133.425 105.271 127.171 105.271 119.457C105.271 111.743 99.0176 105.49 91.3035 105.49Z" fill="#E2E2E2"/>
<path d="M119.239 105.49C111.525 105.49 105.271 111.743 105.271 119.457C105.271 127.171 111.525 133.425 119.239 133.425C126.953 133.425 133.206 127.171 133.206 119.457C133.206 111.743 126.953 105.49 119.239 105.49Z" fill="#E2E2E2"/>
</svg>
