<svg width="208" height="211" viewBox="0 0 208 211" fill="none" xmlns="http://www.w3.org/2000/svg">
<g filter="url(#filter0_f_557_184)">
<rect x="47.7031" y="47.6992" width="112" height="115" rx="22.4905" fill="#FF0F4B"/>
</g>
<rect x="48.7031" y="48.6992" width="111.553" height="111.553" rx="22.4905" fill="#FF0F4B"/>
<path d="M119.844 105.199C124.038 103.571 127.983 101.164 130.196 98.951C135.372 93.7748 135.372 85.3826 130.196 80.2063C125.02 75.0302 116.627 75.0302 111.451 80.2063C109.238 82.4196 106.831 86.3641 105.203 90.5584C103.575 86.3641 101.168 82.4196 98.9549 80.2063C93.7787 75.0302 85.3864 75.0302 80.2103 80.2063C75.0341 85.3825 75.034 93.7748 80.2103 98.951C82.4235 101.164 86.3681 103.571 90.5624 105.199C86.3681 106.828 82.4235 109.234 80.2103 111.447C75.034 116.624 75.0341 125.016 80.2103 130.192C85.3864 135.368 93.7787 135.368 98.9549 130.192C101.168 127.979 103.575 124.034 105.203 119.84C106.831 124.034 109.238 127.979 111.451 130.192C116.627 135.368 125.02 135.368 130.196 130.192C135.372 125.016 135.372 116.624 130.196 111.447C127.983 109.234 124.038 106.828 119.844 105.199Z" fill="#040B1C"/>
<defs>
<filter id="filter0_f_557_184" x="0.00312424" y="-0.000782013" width="207.4" height="210.4" filterUnits="userSpaceOnUse" color-interpolation-filters="sRGB">
<feFlood flood-opacity="0" result="BackgroundImageFix"/>
<feBlend mode="normal" in="SourceGraphic" in2="BackgroundImageFix" result="shape"/>
<feGaussianBlur stdDeviation="23.85" result="effect1_foregroundBlur_557_184"/>
</filter>
</defs>
</svg>
