<svg xmlns="http://www.w3.org/2000/svg" width="871" height="321" viewBox="0 0 871 321" fill="none">
<path d="M220.852 172V64.9138H249.645V83.5981H250.761C252.713 76.9517 255.99 71.9321 260.591 68.5391C265.192 65.0997 270.491 63.38 276.487 63.38C277.974 63.38 279.577 63.473 281.297 63.6589C283.017 63.8448 284.527 64.1005 285.829 64.4258V90.779C284.434 90.3607 282.506 89.9889 280.042 89.6636C277.579 89.3382 275.325 89.1755 273.28 89.1755C268.911 89.1755 265.006 90.1283 261.567 92.034C258.174 93.8931 255.478 96.4959 253.48 99.8423C251.528 103.189 250.552 107.046 250.552 111.415V172H220.852ZM335.185 174.092C324.17 174.092 314.688 171.861 306.741 167.399C298.839 162.89 292.751 156.523 288.475 148.296C284.199 140.023 282.061 130.239 282.061 118.945C282.061 107.93 284.199 98.2621 288.475 89.9424C292.751 81.6228 298.769 75.1391 306.531 70.4912C314.34 65.8434 323.496 63.5195 334 63.5195C341.065 63.5195 347.642 64.6582 353.73 66.9356C359.865 69.1666 365.21 72.5363 369.765 77.0447C374.367 81.5531 377.945 87.2234 380.502 94.0558C383.058 100.842 384.336 108.789 384.336 117.899V126.056H293.913V107.651H356.379C356.379 103.375 355.45 99.5867 353.591 96.2867C351.732 92.9868 349.152 90.4072 345.852 88.5481C342.599 86.6425 338.811 85.6897 334.488 85.6897C329.98 85.6897 325.983 86.7354 322.497 88.8269C319.057 90.872 316.362 93.6375 314.409 97.1233C312.457 100.563 311.458 104.397 311.412 108.627V126.126C311.412 131.424 312.388 136.002 314.34 139.86C316.338 143.718 319.15 146.693 322.776 148.784C326.401 150.876 330.7 151.921 335.673 151.921C338.973 151.921 341.994 151.457 344.737 150.527C347.479 149.597 349.826 148.203 351.778 146.344C353.73 144.485 355.217 142.207 356.24 139.512L383.709 141.324C382.314 147.924 379.456 153.688 375.133 158.614C370.857 163.494 365.327 167.306 358.541 170.048C351.801 172.744 344.016 174.092 335.185 174.092ZM424.438 174.022C417.605 174.022 411.517 172.837 406.172 170.466C400.827 168.049 396.597 164.494 393.483 159.799C390.416 155.059 388.882 149.156 388.882 142.091C388.882 136.142 389.974 131.146 392.158 127.102C394.343 123.058 397.318 119.805 401.082 117.341C404.847 114.878 409.123 113.019 413.91 111.764C418.744 110.509 423.81 109.626 429.109 109.115C435.337 108.464 440.357 107.86 444.168 107.302C447.979 106.698 450.744 105.815 452.464 104.653C454.184 103.491 455.044 101.771 455.044 99.4937V99.0754C455.044 94.66 453.649 91.2438 450.861 88.8269C448.118 86.4101 444.214 85.2016 439.148 85.2016C433.803 85.2016 429.55 86.3868 426.39 88.7572C423.229 91.0812 421.138 94.0093 420.115 97.5416L392.647 95.3107C394.041 88.8037 396.783 83.1798 400.873 78.439C404.963 73.6518 410.239 69.98 416.699 67.4237C423.206 64.8209 430.736 63.5195 439.288 63.5195C445.237 63.5195 450.93 64.2167 456.368 65.611C461.853 67.0054 466.71 69.1666 470.939 72.0947C475.215 75.0229 478.585 78.7876 481.048 83.389C483.512 87.9439 484.743 93.4051 484.743 99.7726V172H456.578V157.15H455.741C454.021 160.497 451.721 163.448 448.839 166.004C445.957 168.514 442.495 170.489 438.451 171.93C434.407 173.325 429.736 174.022 424.438 174.022ZM432.943 153.525C437.312 153.525 441.17 152.665 444.516 150.945C447.863 149.179 450.489 146.809 452.394 143.834C454.3 140.859 455.253 137.49 455.253 133.725V122.361C454.323 122.965 453.045 123.523 451.418 124.034C449.838 124.499 448.049 124.941 446.05 125.359C444.052 125.731 442.053 126.079 440.054 126.405C438.056 126.684 436.243 126.939 434.616 127.172C431.131 127.683 428.086 128.496 425.483 129.612C422.881 130.727 420.859 132.238 419.418 134.143C417.977 136.002 417.257 138.326 417.257 141.115C417.257 145.159 418.721 148.25 421.649 150.388C424.624 152.479 428.388 153.525 432.943 153.525ZM524.88 141.185L524.95 105.559H529.272L563.573 64.9138H597.665L551.582 118.736H544.54L524.88 141.185ZM497.969 172V29.2184H527.668V172H497.969ZM564.898 172L533.385 125.359L553.185 104.374L599.687 172H564.898ZM602.42 172V64.9138H632.119V172H602.42ZM617.339 51.1097C612.924 51.1097 609.136 49.6457 605.975 46.7175C602.861 43.7429 601.304 40.1873 601.304 36.0508C601.304 31.9607 602.861 28.4515 605.975 25.5234C609.136 22.5488 612.924 21.0615 617.339 21.0615C621.755 21.0615 625.519 22.5488 628.633 25.5234C631.794 28.4515 633.374 31.9607 633.374 36.0508C633.374 40.1873 631.794 43.7429 628.633 46.7175C625.519 49.6457 621.755 51.1097 617.339 51.1097ZM675.794 110.091V172H646.094V64.9138H674.4V83.8073H675.654C678.025 77.5792 681.999 72.6525 687.576 69.0272C693.154 65.3554 699.916 63.5195 707.864 63.5195C715.301 63.5195 721.784 65.1462 727.315 68.3997C732.846 71.6532 737.145 76.301 740.213 82.3432C743.281 88.3389 744.814 95.4966 744.814 103.816V172H715.115V109.115C715.161 102.561 713.488 97.4487 710.095 93.7769C706.702 90.0586 702.031 88.1995 696.082 88.1995C692.085 88.1995 688.552 89.0593 685.485 90.779C682.464 92.4987 680.093 95.0086 678.373 98.3085C676.7 101.562 675.84 105.489 675.794 110.091ZM806.65 214.388C797.029 214.388 788.779 213.064 781.901 210.414C775.068 207.812 769.63 204.256 765.587 199.748C761.543 195.239 758.917 190.173 757.709 184.549L785.177 180.854C786.014 182.992 787.339 184.991 789.151 186.85C790.964 188.709 793.357 190.196 796.332 191.312C799.353 192.474 803.025 193.055 807.347 193.055C813.808 193.055 819.13 191.474 823.313 188.314C827.542 185.2 829.657 179.971 829.657 172.627V153.037H828.402C827.101 156.011 825.149 158.823 822.546 161.473C819.943 164.122 816.597 166.283 812.507 167.956C808.416 169.63 803.536 170.466 797.866 170.466C789.825 170.466 782.505 168.607 775.905 164.889C769.351 161.124 764.123 155.384 760.218 147.669C756.361 139.907 754.432 130.1 754.432 118.248C754.432 106.117 756.407 95.9846 760.358 87.8509C764.309 79.7172 769.561 73.6285 776.114 69.5849C782.714 65.5413 789.941 63.5195 797.796 63.5195C803.792 63.5195 808.812 64.542 812.855 66.5871C816.899 68.5856 820.152 71.0955 822.616 74.1165C825.125 77.0912 827.054 80.0193 828.402 82.901H829.518V64.9138H859.008V173.046C859.008 182.156 856.777 189.778 852.315 195.913C847.853 202.048 841.672 206.65 833.77 209.717C825.916 212.831 816.876 214.388 806.65 214.388ZM807.278 148.157C812.065 148.157 816.109 146.971 819.409 144.601C822.755 142.184 825.311 138.745 827.078 134.283C828.89 129.774 829.797 124.383 829.797 118.108C829.797 111.834 828.913 106.396 827.147 101.794C825.381 97.1466 822.825 93.5445 819.478 90.9882C816.132 88.4319 812.065 87.1537 807.278 87.1537C802.398 87.1537 798.284 88.4784 794.938 91.1276C791.591 93.7304 789.058 97.3557 787.339 102.004C785.619 106.651 784.759 112.02 784.759 118.108C784.759 124.29 785.619 129.635 787.339 134.143C789.105 138.605 791.638 142.068 794.938 144.531C798.284 146.948 802.398 148.157 807.278 148.157Z" fill="#F7F7F7"/>
<path d="M261.47 276.266C254.913 276.266 249.243 274.873 244.459 272.088C239.703 269.273 236.031 265.362 233.442 260.353C230.853 255.316 229.559 249.477 229.559 242.836C229.559 236.139 230.853 230.285 233.442 225.276C236.031 220.239 239.703 216.328 244.459 213.542C249.243 210.728 254.913 209.321 261.47 209.321C268.026 209.321 273.682 210.728 278.438 213.542C283.222 216.328 286.908 220.239 289.497 225.276C292.086 230.285 293.38 236.139 293.38 242.836C293.38 249.477 292.086 255.316 289.497 260.353C286.908 265.362 283.222 269.273 278.438 272.088C273.682 274.873 268.026 276.266 261.47 276.266ZM261.554 262.337C264.537 262.337 267.027 261.493 269.025 259.804C271.023 258.088 272.529 255.752 273.542 252.797C274.583 249.843 275.103 246.48 275.103 242.709C275.103 238.939 274.583 235.576 273.542 232.621C272.529 229.666 271.023 227.331 269.025 225.614C267.027 223.898 264.537 223.039 261.554 223.039C258.543 223.039 256.01 223.898 253.956 225.614C251.93 227.331 250.396 229.666 249.355 232.621C248.342 235.576 247.836 238.939 247.836 242.709C247.836 246.48 248.342 249.843 249.355 252.797C250.396 255.752 251.93 258.088 253.956 259.804C256.01 261.493 258.543 262.337 261.554 262.337ZM340.706 247.395V210.165H358.688V275H341.424V263.223H340.749C339.285 267.022 336.851 270.075 333.446 272.383C330.069 274.69 325.947 275.844 321.079 275.844C316.745 275.844 312.932 274.859 309.64 272.889C306.347 270.92 303.772 268.12 301.915 264.49C300.086 260.86 299.158 256.512 299.129 251.447V210.165H317.111V248.239C317.139 252.066 318.166 255.091 320.192 257.314C322.218 259.537 324.934 260.649 328.339 260.649C330.506 260.649 332.532 260.156 334.417 259.171C336.302 258.158 337.822 256.667 338.976 254.697C340.158 252.727 340.734 250.293 340.706 247.395ZM385.109 237.517V275H367.128V210.165H384.265V221.604H385.025C386.46 217.833 388.866 214.851 392.243 212.656C395.62 210.433 399.714 209.321 404.526 209.321C409.028 209.321 412.954 210.306 416.303 212.276C419.651 214.246 422.254 217.06 424.111 220.718C425.969 224.348 426.897 228.681 426.897 233.719V275H408.916V236.926C408.944 232.959 407.931 229.863 405.877 227.64C403.822 225.389 400.994 224.263 397.392 224.263C394.972 224.263 392.834 224.784 390.976 225.825C389.147 226.866 387.712 228.386 386.671 230.384C385.658 232.354 385.137 234.732 385.109 237.517ZM459.017 276.055C454.093 276.055 449.632 274.789 445.636 272.256C441.669 269.696 438.517 265.939 436.181 260.986C433.874 256.005 432.72 249.899 432.72 242.667C432.72 235.238 433.916 229.061 436.308 224.137C438.7 219.184 441.88 215.484 445.847 213.036C449.843 210.559 454.219 209.321 458.975 209.321C462.605 209.321 465.63 209.94 468.05 211.178C470.498 212.388 472.468 213.908 473.959 215.737C475.479 217.538 476.633 219.311 477.421 221.055H477.969V188.554H495.909V275H478.18V264.616H477.421C476.576 266.417 475.38 268.204 473.833 269.977C472.313 271.722 470.329 273.171 467.881 274.325C465.461 275.478 462.506 276.055 459.017 276.055ZM464.715 261.746C467.614 261.746 470.062 260.958 472.06 259.382C474.086 257.778 475.634 255.541 476.703 252.671C477.801 249.801 478.349 246.438 478.349 242.583C478.349 238.727 477.815 235.379 476.745 232.537C475.676 229.694 474.128 227.5 472.102 225.952C470.076 224.404 467.614 223.63 464.715 223.63C461.761 223.63 459.27 224.432 457.244 226.036C455.218 227.64 453.685 229.863 452.643 232.705C451.602 235.548 451.082 238.84 451.082 242.583C451.082 246.353 451.602 249.688 452.643 252.586C453.713 255.457 455.246 257.708 457.244 259.34C459.27 260.944 461.761 261.746 464.715 261.746ZM523.238 276.224C519.101 276.224 515.415 275.507 512.179 274.071C508.942 272.608 506.382 270.455 504.496 267.613C502.639 264.743 501.71 261.169 501.71 256.892C501.71 253.29 502.372 250.265 503.694 247.817C505.017 245.369 506.818 243.399 509.097 241.907C511.377 240.416 513.965 239.29 516.864 238.53C519.79 237.771 522.858 237.236 526.066 236.926C529.836 236.533 532.876 236.167 535.183 235.829C537.491 235.463 539.165 234.929 540.206 234.225C541.247 233.522 541.768 232.48 541.768 231.101V230.848C541.768 228.175 540.924 226.107 539.235 224.643C537.575 223.18 535.211 222.448 532.144 222.448C528.908 222.448 526.333 223.166 524.419 224.601C522.506 226.008 521.24 227.781 520.621 229.92L503.99 228.569C504.834 224.629 506.494 221.224 508.971 218.354C511.447 215.456 514.641 213.233 518.552 211.685C522.492 210.109 527.051 209.321 532.228 209.321C535.83 209.321 539.277 209.743 542.57 210.587C545.89 211.432 548.831 212.74 551.392 214.513C553.981 216.286 556.021 218.565 557.512 221.351C559.004 224.109 559.749 227.415 559.749 231.27V275H542.696V266.009H542.19C541.149 268.035 539.756 269.822 538.011 271.37C536.266 272.889 534.17 274.085 531.722 274.958C529.274 275.802 526.446 276.224 523.238 276.224ZM528.387 263.814C531.032 263.814 533.368 263.294 535.394 262.253C537.42 261.183 539.01 259.748 540.164 257.947C541.318 256.146 541.894 254.106 541.894 251.827V244.946C541.332 245.312 540.558 245.65 539.573 245.959C538.616 246.241 537.533 246.508 536.323 246.761C535.113 246.987 533.903 247.198 532.693 247.395C531.483 247.563 530.385 247.718 529.4 247.859C527.29 248.168 525.447 248.661 523.871 249.336C522.295 250.012 521.071 250.926 520.198 252.08C519.326 253.206 518.89 254.613 518.89 256.301C518.89 258.749 519.776 260.62 521.549 261.915C523.35 263.181 525.63 263.814 528.387 263.814ZM567.757 275V210.165H585.189V221.478H585.865C587.047 217.454 589.03 214.414 591.816 212.36C594.602 210.278 597.81 209.237 601.44 209.237C602.341 209.237 603.312 209.293 604.353 209.405C605.394 209.518 606.308 209.673 607.096 209.87V225.825C606.252 225.572 605.084 225.347 603.593 225.15C602.102 224.953 600.737 224.854 599.499 224.854C596.853 224.854 594.49 225.431 592.407 226.585C590.353 227.711 588.721 229.286 587.511 231.313C586.329 233.339 585.738 235.674 585.738 238.319V275H567.757ZM610.45 275V210.165H628.432V275H610.45ZM619.483 201.808C616.81 201.808 614.516 200.921 612.603 199.148C610.717 197.347 609.775 195.195 609.775 192.69C609.775 190.214 610.717 188.089 612.603 186.317C614.516 184.516 616.81 183.615 619.483 183.615C622.156 183.615 624.436 184.516 626.321 186.317C628.235 188.089 629.191 190.214 629.191 192.69C629.191 195.195 628.235 197.347 626.321 199.148C624.436 200.921 622.156 201.808 619.483 201.808ZM666.44 276.266C659.77 276.266 654.03 274.916 649.218 272.214C644.434 269.485 640.748 265.629 638.159 260.649C635.57 255.64 634.276 249.716 634.276 242.878C634.276 236.209 635.57 230.356 638.159 225.319C640.748 220.282 644.392 216.356 649.091 213.542C653.819 210.728 659.362 209.321 665.722 209.321C669.999 209.321 673.981 210.011 677.668 211.389C681.382 212.74 684.618 214.78 687.376 217.51C690.162 220.239 692.328 223.673 693.876 227.809C695.424 231.918 696.198 236.73 696.198 242.245V247.184H641.451V236.04H679.271C679.271 233.451 678.709 231.158 677.583 229.16C676.457 227.162 674.896 225.6 672.898 224.475C670.928 223.321 668.635 222.744 666.018 222.744C663.288 222.744 660.868 223.377 658.757 224.643C656.675 225.882 655.043 227.556 653.861 229.666C652.679 231.749 652.074 234.07 652.046 236.631V247.226C652.046 250.434 652.637 253.206 653.819 255.541C655.029 257.877 656.731 259.678 658.926 260.944C661.121 262.21 663.724 262.843 666.735 262.843C668.733 262.843 670.562 262.562 672.222 261.999C673.883 261.436 675.304 260.592 676.486 259.467C677.668 258.341 678.568 256.962 679.187 255.33L695.818 256.428C694.974 260.423 693.243 263.913 690.626 266.896C688.037 269.85 684.688 272.158 680.58 273.818C676.5 275.45 671.786 276.266 666.44 276.266ZM755.933 228.653L739.472 229.666C739.19 228.259 738.585 226.993 737.656 225.867C736.728 224.714 735.504 223.799 733.984 223.124C732.493 222.42 730.706 222.069 728.624 222.069C725.838 222.069 723.488 222.659 721.574 223.841C719.661 224.995 718.704 226.543 718.704 228.484C718.704 230.032 719.323 231.341 720.561 232.41C721.8 233.479 723.924 234.338 726.935 234.985L738.67 237.349C744.973 238.643 749.672 240.725 752.768 243.596C755.863 246.466 757.411 250.237 757.411 254.908C757.411 259.157 756.159 262.886 753.654 266.094C751.178 269.302 747.773 271.806 743.439 273.607C739.134 275.38 734.167 276.266 728.539 276.266C719.956 276.266 713.118 274.479 708.025 270.906C702.96 267.304 699.991 262.407 699.119 256.217L716.805 255.288C717.339 257.905 718.634 259.903 720.688 261.282C722.742 262.632 725.373 263.308 728.581 263.308C731.733 263.308 734.266 262.703 736.179 261.493C738.121 260.255 739.106 258.665 739.134 256.723C739.106 255.091 738.416 253.754 737.066 252.713C735.715 251.644 733.632 250.828 730.818 250.265L719.591 248.028C713.259 246.761 708.546 244.567 705.45 241.443C702.383 238.319 700.849 234.338 700.849 229.498C700.849 225.333 701.975 221.745 704.226 218.734C706.505 215.723 709.699 213.401 713.808 211.769C717.944 210.137 722.784 209.321 728.328 209.321C736.517 209.321 742.961 211.052 747.66 214.513C752.388 217.974 755.146 222.688 755.933 228.653Z" fill="#F7F7F7"/>
<path d="M24.9372 287L24.9372 34.1715L121.723 34.1715C139.994 34.1715 155.178 37.052 167.277 42.8131C179.457 48.4918 188.551 56.2693 194.559 66.1454C200.65 76.0215 203.695 87.2144 203.695 99.7242C203.695 110.012 201.72 118.818 197.769 126.143C193.819 133.385 188.51 139.27 181.844 143.796C175.178 148.323 167.729 151.574 159.499 153.549L159.499 156.018C168.47 156.512 177.071 159.269 185.301 164.289C193.613 169.227 200.403 176.223 205.67 185.276C210.937 194.329 213.571 205.275 213.571 218.114C213.571 231.2 210.402 242.969 204.065 253.421C197.728 263.791 188.181 271.98 175.425 277.988C162.668 283.996 146.619 287 127.278 287L24.9372 287ZM70.7377 248.73L119.995 248.73C136.62 248.73 148.594 245.561 155.919 239.224C163.326 232.805 167.03 224.575 167.03 214.534C167.03 207.045 165.178 200.296 161.474 194.288C157.771 188.198 152.504 183.424 145.673 179.968C138.842 176.429 130.694 174.659 121.229 174.659L70.7377 174.659L70.7377 248.73ZM70.7377 141.698L116.044 141.698C123.945 141.698 131.064 140.257 137.401 137.377C143.739 134.414 148.718 130.258 152.339 124.908C156.043 119.476 157.894 113.057 157.894 105.65C157.894 95.856 154.438 87.7905 147.524 81.4533C140.693 75.1162 130.529 71.9476 117.032 71.9476L70.7377 71.9476L70.7377 141.698Z" fill="#EB0028"/>
</svg>
