<svg xmlns="http://www.w3.org/2000/svg" width="2645" height="1573" viewBox="0 0 2645 1573" fill="none">
<path d="M15.3006 291.885L15.3006 201.693L373.654 201.693L373.654 291.885L249.639 291.885L249.639 614L139.315 614L139.315 291.885L15.3006 291.885ZM500.174 440.058L500.174 614L389.045 614L389.045 201.693L496.148 201.693L496.148 363.556L499.369 363.556C506.348 343.826 517.958 328.458 534.198 317.453C550.438 306.313 569.966 300.743 592.782 300.743C614.659 300.743 633.651 305.709 649.757 315.641C665.997 325.573 678.546 339.263 687.404 356.711C696.396 374.159 700.825 394.157 700.691 416.705L700.691 614L589.561 614L589.561 440.058C589.696 424.757 585.87 412.745 578.086 404.021C570.436 395.297 559.497 390.935 545.27 390.935C536.278 390.935 528.359 392.949 521.515 396.975C514.804 400.867 509.569 406.504 505.811 413.886C502.188 421.134 500.309 429.858 500.174 440.058ZM875.378 619.637C842.361 619.637 813.908 613.329 790.018 600.713C766.262 587.962 747.941 569.709 735.057 545.953C722.306 522.063 715.931 493.475 715.931 460.19C715.931 428.247 722.373 400.33 735.258 376.44C748.143 352.55 766.329 333.961 789.816 320.674C813.304 307.387 841.019 300.743 872.962 300.743C896.316 300.743 917.454 304.367 936.379 311.615C955.303 318.862 971.476 329.398 984.897 343.222C998.319 356.912 1008.65 373.555 1015.9 393.15C1023.15 412.745 1026.77 434.824 1026.77 459.385L1026.77 485.154L750.558 485.154L750.558 423.952L924.501 423.952C924.366 415.094 922.085 407.31 917.656 400.599C913.361 393.754 907.522 388.452 900.141 384.694C892.893 380.802 884.639 378.856 875.378 378.856C866.386 378.856 858.131 380.802 850.615 384.694C843.099 388.452 837.06 393.687 832.497 400.397C828.067 407.108 825.719 414.96 825.45 423.952L825.45 489.986C825.45 499.918 827.531 508.776 831.691 516.56C835.852 524.345 841.824 530.451 849.609 534.881C857.393 539.31 866.788 541.524 877.794 541.524C885.444 541.524 892.423 540.45 898.731 538.303C905.174 536.156 910.677 533.069 915.24 529.042C919.803 524.882 923.158 519.916 925.306 514.144L1026.77 514.144C1023.28 535.619 1015.03 554.275 1002.01 570.112C988.991 585.815 971.744 598.029 950.27 606.752C928.93 615.342 903.966 619.637 875.378 619.637Z" fill="#F7F7F7"/>
<path d="M1538.43 407.846C1538.43 453.748 1529.5 492.469 1511.65 524.009C1493.8 555.415 1469.71 579.238 1439.38 595.478C1409.04 611.584 1375.22 619.637 1337.91 619.637C1300.33 619.637 1266.37 611.517 1236.04 595.277C1205.84 578.903 1181.82 555.013 1163.97 523.606C1146.25 492.066 1137.39 453.479 1137.39 407.846C1137.39 361.945 1146.25 323.291 1163.97 291.885C1181.82 260.344 1205.84 236.521 1236.04 220.416C1266.37 204.176 1300.33 196.056 1337.91 196.056C1375.22 196.056 1409.04 204.176 1439.38 220.416C1469.71 236.521 1493.8 260.345 1511.65 291.885C1529.5 323.291 1538.43 361.945 1538.43 407.846ZM1423.27 407.846C1423.27 383.151 1419.98 362.348 1413.41 345.437C1406.96 328.391 1397.37 315.507 1384.62 306.783C1372 297.925 1356.43 293.495 1337.91 293.495C1319.39 293.495 1303.75 297.925 1291 306.783C1278.39 315.507 1268.79 328.391 1262.21 345.437C1255.77 362.348 1252.55 383.151 1252.55 407.846C1252.55 432.542 1255.77 453.412 1262.21 470.457C1268.79 487.369 1278.39 500.253 1291 509.111C1303.75 517.835 1319.39 522.197 1337.91 522.197C1356.43 522.197 1372 517.835 1384.62 509.111C1397.37 500.253 1406.96 487.369 1413.41 470.457C1419.98 453.412 1423.27 432.542 1423.27 407.846ZM1747.89 304.77L1747.89 385.298L1544.15 385.298L1544.15 304.77L1747.89 304.77ZM1583.61 230.683L1694.74 230.683L1694.74 514.547C1694.74 518.842 1695.48 522.466 1696.96 525.418C1698.43 528.237 1700.72 530.384 1703.8 531.861C1706.89 533.203 1710.85 533.874 1715.68 533.874C1719.04 533.874 1722.93 533.471 1727.36 532.666C1731.92 531.861 1735.28 531.19 1737.42 530.653L1753.53 608.766C1748.56 610.242 1741.45 612.054 1732.19 614.201C1723.06 616.349 1712.19 617.758 1699.58 618.429C1674.07 619.771 1652.67 617.154 1635.35 610.578C1618.04 603.867 1605.02 593.331 1596.3 578.97C1587.57 564.609 1583.35 546.624 1583.61 525.016L1583.61 230.683ZM1882.67 440.058L1882.67 614L1771.54 614L1771.54 201.693L1878.64 201.693L1878.64 363.556L1881.86 363.556C1888.84 343.826 1900.45 328.458 1916.69 317.453C1932.93 306.313 1952.46 300.743 1975.28 300.743C1997.15 300.743 2016.14 305.709 2032.25 315.641C2048.49 325.573 2061.04 339.263 2069.9 356.711C2078.89 374.159 2083.32 394.157 2083.18 416.705L2083.18 614L1972.05 614L1972.05 440.058C1972.19 424.757 1968.36 412.745 1960.58 404.021C1952.93 395.297 1941.99 390.935 1927.76 390.935C1918.77 390.935 1910.85 392.949 1904.01 396.975C1897.3 400.867 1892.06 406.504 1888.3 413.886C1884.68 421.134 1882.8 429.858 1882.67 440.058ZM2257.87 619.637C2224.85 619.637 2196.4 613.329 2172.51 600.713C2148.75 587.962 2130.43 569.709 2117.55 545.953C2104.8 522.063 2098.42 493.475 2098.42 460.19C2098.42 428.247 2104.87 400.33 2117.75 376.44C2130.64 352.55 2148.82 333.961 2172.31 320.674C2195.8 307.387 2223.51 300.743 2255.46 300.743C2278.81 300.743 2299.95 304.367 2318.87 311.615C2337.8 318.862 2353.97 329.398 2367.39 343.222C2380.81 356.912 2391.15 373.555 2398.39 393.15C2405.64 412.745 2409.27 434.824 2409.27 459.385L2409.27 485.154L2133.05 485.154L2133.05 423.952L2306.99 423.952C2306.86 415.094 2304.58 407.31 2300.15 400.599C2295.85 393.754 2290.02 388.452 2282.63 384.694C2275.39 380.802 2267.13 378.856 2257.87 378.856C2248.88 378.856 2240.62 380.802 2233.11 384.694C2225.59 388.452 2219.55 393.687 2214.99 400.398C2210.56 407.108 2208.21 414.96 2207.94 423.952L2207.94 489.986C2207.94 499.918 2210.02 508.776 2214.18 516.56C2218.34 524.345 2224.32 530.451 2232.1 534.881C2239.89 539.31 2249.28 541.524 2260.29 541.524C2267.94 541.524 2274.92 540.45 2281.22 538.303C2287.67 536.156 2293.17 533.069 2297.73 529.042C2302.3 524.882 2305.65 519.916 2307.8 514.144L2409.27 514.144C2405.78 535.619 2397.52 554.275 2384.5 570.112C2371.48 585.815 2354.24 598.029 2332.76 606.753C2311.42 615.342 2286.46 619.637 2257.87 619.637ZM2426.27 614L2426.27 304.77L2534.18 304.77L2534.18 363.556L2537.4 363.556C2543.03 341.813 2551.96 325.908 2564.17 315.842C2576.52 305.776 2590.95 300.743 2607.46 300.743C2612.29 300.743 2617.05 301.146 2621.75 301.951C2626.58 302.622 2631.21 303.629 2635.64 304.971L2635.64 399.794C2630.14 397.915 2623.36 396.505 2615.31 395.566C2607.26 394.626 2600.34 394.157 2594.57 394.157C2583.7 394.157 2573.9 396.64 2565.18 401.605C2556.59 406.437 2549.81 413.282 2544.85 422.14C2539.88 430.864 2537.4 441.132 2537.4 452.943L2537.4 614L2426.27 614Z" fill="#F7F7F7"/>
<path d="M328.642 977.712C412.072 977.712 477.839 995 525.943 1029.57C574.298 1064.15 599.728 1112 602.234 1173.14L411.321 1173.14C410.318 1161.36 406.184 1151.21 398.918 1142.69C391.653 1134.18 382.257 1127.66 370.732 1123.15C359.458 1118.39 346.93 1116.01 333.15 1116.01C315.362 1116.01 300.079 1119.27 287.302 1125.78C274.524 1132.3 268.261 1141.57 268.511 1153.59C268.26 1162.11 271.893 1170 279.409 1177.27C287.176 1184.54 302.084 1190.17 324.132 1194.18L441.386 1215.23C500.514 1226 544.484 1244.16 573.296 1269.72C602.359 1295.02 617.016 1328.97 617.267 1371.57C617.016 1412.65 604.739 1448.36 580.436 1478.67C556.384 1508.74 523.438 1532.04 481.597 1548.57C440.007 1564.86 392.53 1573 339.164 1573C250.973 1573 181.948 1554.96 132.09 1518.88C82.4824 1482.81 54.7978 1435.2 49.0352 1376.08L254.981 1376.08C257.737 1394.36 266.757 1408.52 282.04 1418.54C297.573 1428.31 317.116 1433.2 340.667 1433.2C359.708 1433.2 375.367 1429.94 387.644 1423.43C400.171 1416.91 406.56 1407.64 406.811 1395.62C406.56 1384.59 401.048 1375.82 390.275 1369.31C379.752 1362.8 363.216 1357.53 340.667 1353.53L238.446 1335.49C179.568 1325.21 135.472 1305.67 106.159 1276.86C76.8456 1248.05 62.3144 1210.97 62.5649 1165.62C62.3144 1125.53 72.837 1091.58 94.1332 1063.77C115.68 1035.71 146.371 1014.42 186.207 999.885C226.294 985.103 273.773 977.712 328.642 977.712Z" fill="#EB0028"/>
<path fill-rule="evenodd" clip-rule="evenodd" d="M2286.73 977.712C2330.33 977.712 2369.79 984.477 2405.11 998.006C2440.44 1011.54 2470.63 1031.2 2495.69 1057.01C2520.74 1082.56 2540.03 1113.63 2553.56 1150.21C2567.09 1186.79 2573.85 1228 2573.85 1273.85L2573.85 1321.96L2198.04 1321.96L2198.04 1330.98C2198.04 1349.52 2201.92 1366.05 2209.69 1380.59C2217.46 1395.12 2228.61 1406.52 2243.14 1414.78C2257.67 1423.05 2275.21 1427.19 2295.75 1427.19C2310.03 1427.19 2323.06 1425.18 2334.84 1421.17C2346.86 1417.16 2357.14 1411.4 2365.65 1403.89C2374.17 1396.12 2380.44 1386.85 2384.44 1376.08L2573.85 1376.08C2567.34 1416.16 2551.93 1450.99 2527.63 1480.55C2503.33 1509.87 2471.13 1532.66 2431.05 1548.95C2391.21 1564.98 2344.61 1573 2291.24 1573C2229.61 1573 2176.49 1561.23 2131.9 1537.68C2087.55 1513.87 2053.35 1479.8 2029.3 1435.45C2005.5 1390.86 1993.6 1337.49 1993.6 1275.36C1993.6 1215.73 2005.62 1163.61 2029.68 1119.02C2053.73 1074.42 2087.68 1039.72 2131.52 1014.92C2175.37 990.114 2227.1 977.712 2286.73 977.712ZM2291.24 1123.53C2274.46 1123.53 2259.05 1127.16 2245.02 1134.43C2230.99 1141.44 2219.71 1151.21 2211.19 1163.74C2202.93 1176.27 2198.54 1190.92 2198.04 1207.71L2382.94 1207.71C2382.69 1191.17 2378.43 1176.64 2370.16 1164.12C2362.15 1151.34 2351.25 1141.44 2337.47 1134.43C2323.94 1127.16 2308.53 1123.53 2291.24 1123.53Z" fill="#EB0028"/>
<path fill-rule="evenodd" clip-rule="evenodd" d="M1965.71 1562.48L1891.78 1562.48L1891.78 861.508L1445.14 861.508L1445.14 1562.48L1278.38 1562.48L1278.38 1467.77L1273.87 1467.77C1265.85 1487.32 1254.33 1504.85 1239.3 1520.39C1224.51 1535.67 1206.47 1547.82 1185.18 1556.84C1164.13 1565.61 1140.08 1570 1113.02 1570C1071.93 1570 1034.1 1559.22 999.526 1537.68C965.201 1516.13 937.642 1483.43 916.847 1439.59C896.302 1395.74 886.03 1340.5 886.03 1273.85C886.03 1204.2 896.803 1147.58 918.35 1103.99C940.147 1060.39 968.208 1028.45 1002.53 1008.15C1037.11 987.859 1073.44 977.712 1111.52 977.712C1140.08 977.712 1165.13 982.723 1186.68 992.744C1208.23 1002.52 1226.27 1015.67 1240.8 1032.2C1255.33 1048.49 1266.35 1066.4 1273.87 1085.95L1276.88 1085.95L1276.88 792.811L1965.71 792.811L1965.71 1562.48ZM1189.69 1137.06C1170.65 1137.06 1154.36 1142.57 1140.83 1153.59C1127.55 1164.37 1117.28 1180.03 1110.02 1200.57C1103 1220.86 1099.49 1245.29 1099.49 1273.85C1099.49 1302.42 1103 1326.97 1110.02 1347.51C1117.28 1367.81 1127.55 1383.47 1140.83 1394.49C1154.36 1405.26 1170.65 1410.65 1189.69 1410.65C1208.73 1410.65 1225.01 1405.14 1238.54 1394.11C1252.32 1382.84 1262.85 1367.06 1270.11 1346.76C1277.63 1326.22 1281.39 1301.91 1281.39 1273.85C1281.39 1245.29 1277.63 1220.86 1270.11 1200.57C1262.85 1180.03 1252.32 1164.37 1238.54 1153.59C1225.01 1142.57 1208.73 1137.06 1189.69 1137.06Z" fill="#EB0028"/>
<path d="M851.286 1562.48L643.836 1562.48L643.836 985.229L851.286 985.229L851.286 1562.48Z" fill="#EB0028"/>
<path d="M1874.44 881.742L1527.68 933.981L1527.68 1528.86L1867.01 1562.48L1467.28 1562.48L1464.79 880.633L1874.44 881.742Z" fill="#EB0028"/>
<path d="M747.561 735.688C775.872 735.688 799.924 744.958 819.717 763.498C839.761 782.038 849.782 804.336 849.782 830.392C849.782 856.449 839.761 878.747 819.717 897.288C799.924 915.828 775.872 925.098 747.561 925.098C719.5 925.098 695.448 915.828 675.405 897.288C655.361 878.747 645.339 856.449 645.339 830.392C645.339 804.336 655.361 782.038 675.405 763.498C695.448 744.958 719.5 735.688 747.561 735.688Z" fill="#EB0028"/>
<path d="M1466.26 881.119L1872.91 881.119L1526.65 934.97L1526.65 1211.27L1526.65 1528.84L1867.37 1562.56L1466.26 1565.58L1466.26 881.119Z" fill="#F7F7F7"/>
<ellipse cx="1561.34" cy="1235.43" rx="13.5886" ry="22.6477" fill="#EB0028"/>
</svg>
